<?xml version="1.0" encoding="utf-8"?>
<!-- Generator: Adobe Illustrator 24.0.0, SVG Export Plug-In . SVG Version: 6.00 Build 0)  -->
<svg version="1.1" xmlns="http://www.w3.org/2000/svg" xmlns:xlink="http://www.w3.org/1999/xlink" x="0px" y="0px"
	 viewBox="0 0 100 100" style="enable-background:new 0 0 100 100;" xml:space="preserve">
<style type="text/css">
	.st0{fill:#8C6239;}
	.st1{fill:#666666;}
	.st2{fill:#999999;}
	.st3{fill:#CCCCCC;}
	.st4{fill:#C69C6D;}
	.st5{fill:#ED1C24;}
</style>
<g id="Layer_1">
	<g>
		<g>
			<g>
				<path class="st0" d="M68.54,26.03c-2.71-1.47-5.53-3.21-8.4-5.15l-0.5-0.34l6.84-6.94c1-1.01,2.33-1.57,3.75-1.57
					c1.39,0,2.71,0.54,3.7,1.52c2.07,2.04,2.09,5.39,0.05,7.46l-5.12,5.2L68.54,26.03z"/>
				<path d="M70.24,12.54c1.21,0,2.42,0.46,3.35,1.37c1.88,1.85,1.89,4.87,0.05,6.75l-4.86,4.93c-2.95-1.61-5.77-3.37-8.36-5.12
					l6.42-6.51C67.77,13.01,69.01,12.54,70.24,12.54 M70.24,11.54c-1.56,0-3.02,0.61-4.11,1.72l-6.42,6.51l-0.84,0.86l0.99,0.67
					c2.88,1.95,5.72,3.69,8.44,5.17l0.66,0.36l0.53-0.54l4.86-4.93c2.23-2.27,2.21-5.93-0.06-8.16
					C73.2,12.13,71.76,11.54,70.24,11.54L70.24,11.54z"/>
			</g>
		</g>
		<g>
			<g>
				<path class="st1" d="M63.55,75.88c6.18-17.03-37.92-35.43-38.37-35.62l-0.32-0.13l0.16-7.82l21.75-23.2l0.36,0.34
					c0.24,0.22,23.99,22.09,42.3,22.09c3.38,0,6.41-0.75,8.99-2.24l0.73-0.42l0.02,0.84c0.02,0.82,0.45,20.1-7.49,31.23
					c-10.68,14.98-27.5,15.6-27.67,15.6l-0.73,0.02L63.55,75.88z"/>
				<path d="M46.8,9.82c0,0,23.92,22.22,42.64,22.22c3.29,0,6.43-0.69,9.24-2.3c0,0,0.53,19.81-7.39,30.92
					C80.63,75.6,64.02,76.05,64.02,76.05C70.44,58.37,25.37,39.8,25.37,39.8l0.15-7.29L46.8,9.82 M46.75,8.41l-0.68,0.73
					l-21.28,22.7l-0.26,0.28l-0.01,0.38l-0.15,7.29l-0.01,0.68l0.63,0.26c0.11,0.05,11.32,4.69,21.58,11.42
					c9.23,6.05,19.59,15.05,16.5,23.56l-0.5,1.38l1.47-0.04c0.7-0.02,17.24-0.63,28.06-15.81c8.03-11.26,7.6-30.71,7.58-31.53
					l-0.05-1.67l-1.45,0.83c-2.51,1.44-5.45,2.17-8.74,2.17c-18.11,0-41.72-21.74-41.96-21.96L46.75,8.41L46.75,8.41z"/>
			</g>
			<path class="st2" d="M25.52,32.51L46.8,9.82c0,0,33.07,30.73,51.88,19.92c0,0,0.53,19.81-7.39,30.92
				C80.63,75.6,64.02,76.05,64.02,76.05C70.44,58.37,25.52,32.51,25.52,32.51z"/>
			<path class="st3" d="M98.68,29.73c-1.97,1.13-4.11,1.81-6.34,2.11c-0.69,6.7-2.46,15.85-6.97,22.18
				C78.75,63.31,69.83,67,64.02,68.46c0.79,2.62,0.87,5.18,0,7.59c0,0,16.62-0.44,27.27-15.39C99.22,49.54,98.68,29.73,98.68,29.73z
				"/>
		</g>
		<g>
			<path class="st0" d="M5.76,87.96c-1.39,0-2.71-0.54-3.7-1.52C-0.01,84.4-0.04,81.06,2,78.99l34.16-34.63
				c1-1.01,2.33-1.57,3.75-1.57c1.39,0,2.71,0.54,3.7,1.52c2.07,2.04,2.09,5.39,0.05,7.46L9.51,86.39
				C8.51,87.4,7.18,87.96,5.76,87.96z"/>
			<path d="M39.92,43.28c1.21,0,2.42,0.46,3.35,1.37c1.88,1.85,1.89,4.87,0.05,6.75L9.16,86.04c-0.93,0.94-2.17,1.42-3.4,1.42
				c-1.21,0-2.42-0.46-3.35-1.37c-1.88-1.85-1.89-4.87-0.05-6.75L36.52,44.7C37.45,43.76,38.68,43.28,39.92,43.28 M39.92,42.28
				L39.92,42.28c-1.56,0-3.02,0.61-4.11,1.72L1.65,78.64c-2.23,2.27-2.21,5.93,0.06,8.16c1.09,1.07,2.53,1.66,4.05,1.66
				c1.55,0,3.01-0.61,4.11-1.72l34.16-34.64c2.23-2.27,2.21-5.93-0.06-8.16C42.88,42.87,41.44,42.28,39.92,42.28L39.92,42.28z"/>
		</g>
		<path class="st4" d="M7.68,80.69c1.89,1.72,2.65,3.96,1.16,5.59s-4.22,1.56-6.11-0.16s-2.22-4.44-0.73-6.07S5.79,78.97,7.68,80.69
			z"/>
		<g>
			<path class="st5" d="M14.19,80.51c0-0.03-0.54-3.2-1.97-4.42c-1.44-1.23-4.88-1.27-4.92-1.27l-1.18-0.01l17.03-17.27l0.17-0.02
				c0.02,0,0.48-0.06,1.15-0.06c1.34,0,3.21,0.21,4.52,1.24c2.07,1.61,2.46,5.02,2.48,5.16l0.03,0.24L14.35,81.49L14.19,80.51z"/>
			<path d="M24.48,57.96c1.16,0,2.98,0.17,4.21,1.13c1.92,1.5,2.29,4.82,2.29,4.82L14.69,80.43c0,0-0.55-3.36-2.14-4.72
				c-1.6-1.36-5.24-1.39-5.24-1.39l16.08-16.3C23.39,58.02,23.83,57.96,24.48,57.96 M24.48,56.96c-0.71,0-1.2,0.06-1.22,0.06
				l-0.34,0.04l-0.24,0.25L6.6,73.62L4.94,75.3l2.36,0.02c0.91,0.01,3.52,0.23,4.6,1.15c1.07,0.92,1.68,3.35,1.8,4.12l0.32,1.94
				l1.38-1.4l16.29-16.52l0.33-0.34l-0.05-0.47c-0.02-0.15-0.43-3.76-2.67-5.5C27.88,57.2,25.89,56.96,24.48,56.96L24.48,56.96z"/>
		</g>
	</g>
</g>
<g id="Layer_2">
</g>
</svg>
