<?xml version="1.0" encoding="utf-8"?>
<!-- Generator: Adobe Illustrator 24.0.0, SVG Export Plug-In . SVG Version: 6.00 Build 0)  -->
<svg version="1.1" xmlns="http://www.w3.org/2000/svg" xmlns:xlink="http://www.w3.org/1999/xlink" x="0px" y="0px"
	 viewBox="0 0 100 100" style="enable-background:new 0 0 100 100;" xml:space="preserve">
<style type="text/css">
	.st0{fill:#FCEE21;}
	.st1{fill:#0071BC;}
	.st2{fill:#FFFFFF;}
	.st3{fill:#FF0000;}
</style>
<g id="Layer_1">
	<g>
		<path d="M49.47,92.13c-2.5,0-4.53-1.14-5.75-3.29c-1.94-3.44-1.24-8.4,1.56-11.05c0.2-0.18,0.51-0.18,0.7,0.02
			c0.19,0.2,0.18,0.51-0.02,0.7c-2.45,2.32-3.08,6.83-1.38,9.85c1.4,2.49,3.98,3.36,7.27,2.45c0.26-0.07,0.53,0.08,0.61,0.34
			c0.07,0.26-0.08,0.53-0.34,0.61C51.19,92.01,50.3,92.13,49.47,92.13z"/>
		<g>
			<path class="st0" d="M17.64,89.02c2.15-9.39,5.05-18.12,8.53-26.84c3.51-8.65,7.61-17.08,12.57-25.02
				c4.94-7.94,10.76-15.4,17.64-21.81c3.47-3.17,7.18-6.08,11.14-8.61c4.01-2.47,8.24-4.53,12.64-6.16
				c0.76-0.28,1.61,0.11,1.89,0.87c0.27,0.73-0.08,1.55-0.79,1.86l-0.04,0.02c-4.1,1.78-7.99,3.96-11.64,6.5
				c-3.61,2.6-6.96,5.55-10.07,8.72c-6.16,6.43-11.29,13.81-15.58,21.65c-4.31,7.83-7.78,16.13-10.68,24.6
				c-2.85,8.44-5.2,17.29-6.66,25.83l-0.03,0.16c-0.42,2.48-2.77,4.14-5.25,3.72c-2.48-0.42-4.14-2.77-3.72-5.25
				C17.61,89.19,17.62,89.09,17.64,89.02z"/>
			<g>
				<path class="st1" d="M27.58,85.47c1.37-6.58,3.22-13.24,5.35-19.69c0,0-0.68-1.63-2.93-2.83c-2.25-1.2-3.78-0.9-3.78-0.9
					c-0.02,0.04-0.04,0.09-0.06,0.13c-2.68,6.71-5.01,13.44-6.92,20.47c0,0,1.82-0.77,4.21,0.07
					C26.61,83.84,27.58,85.47,27.58,85.47z"/>
				<path d="M27.81,86.82l-0.66-1.1c-0.02-0.04-0.97-1.51-3.86-2.53c-2.16-0.76-3.83-0.09-3.85-0.08L18.5,83.5l0.27-0.98
					c1.81-6.63,4.08-13.35,6.94-20.53l0.1-0.25l0.32-0.18c0.07-0.01,1.73-0.32,4.11,0.95c2.38,1.27,3.13,3,3.16,3.08l0.07,0.17
					l-0.06,0.18c-2.22,6.7-4.02,13.31-5.34,19.64L27.81,86.82z M21.19,81.83c0.7,0,1.53,0.1,2.44,0.42
					c1.88,0.66,3.03,1.51,3.68,2.13c1.29-6,3.01-12.24,5.1-18.57c-0.23-0.41-0.97-1.55-2.63-2.43c-1.53-0.81-2.71-0.88-3.2-0.87
					c-2.7,6.78-4.87,13.15-6.61,19.42C20.29,81.88,20.71,81.83,21.19,81.83z M26.17,62.18l0.09,0.03l0-0.03L26.17,62.18z"/>
			</g>
			<path d="M22.08,95.08c-0.28,0-0.56-0.02-0.85-0.07c-2.74-0.47-4.59-3.08-4.12-5.82c0.01-0.09,0.04-0.19,0.05-0.28l0,0
				c2.02-8.79,4.73-17.34,8.55-26.91c3.85-9.47,7.97-17.67,12.61-25.09c5.29-8.5,11.25-15.87,17.72-21.91
				c3.63-3.32,7.4-6.23,11.22-8.66c4.05-2.49,8.33-4.58,12.74-6.2c0.49-0.18,1.03-0.16,1.5,0.06s0.84,0.61,1.02,1.1
				c0.36,0.97-0.1,2.06-1.05,2.48c-4.07,1.77-7.96,3.94-11.6,6.47c-3.42,2.46-6.78,5.38-10,8.66c-5.75,6.01-10.97,13.26-15.5,21.54
				c-4.01,7.28-7.49,15.31-10.65,24.53c-3.02,8.95-5.25,17.62-6.64,25.75l-0.03,0.16C26.63,93.34,24.49,95.08,22.08,95.08z
				 M18.12,89.12c-0.02,0.07-0.03,0.15-0.04,0.23c-0.38,2.21,1.11,4.31,3.32,4.68c2.21,0.38,4.31-1.11,4.68-3.32l0.03-0.16
				c1.4-8.19,3.65-16.9,6.68-25.9c3.18-9.28,6.68-17.35,10.72-24.68c4.57-8.36,9.84-15.68,15.65-21.76
				c3.26-3.33,6.67-6.28,10.14-8.78c3.7-2.57,7.64-4.77,11.73-6.55c0.51-0.22,0.74-0.77,0.57-1.25c-0.09-0.25-0.27-0.44-0.51-0.55
				c-0.24-0.11-0.5-0.12-0.75-0.03c-4.34,1.6-8.57,3.66-12.55,6.11c-3.76,2.4-7.49,5.28-11.07,8.55
				c-6.4,5.97-12.31,13.28-17.55,21.71c-4.61,7.37-8.71,15.53-12.53,24.94C22.83,71.88,20.13,80.39,18.12,89.12z"/>
			<path d="M35.49,57.93c-0.01-0.01-0.94-1.47-2.76-2.27C30.9,54.85,29.44,55,29.42,55L29.31,54c0.07-0.01,1.73-0.18,3.83,0.74
				c2.11,0.93,3.16,2.59,3.2,2.66L35.49,57.93z"/>
			<path d="M53.49,25.09c0-0.01-0.55-1.06-1.38-1.83c-0.6-0.56-1.83-0.66-2.27-0.65l-0.02-1c0.09,0,1.95-0.03,2.98,0.92
				c0.96,0.9,1.56,2.06,1.58,2.11L53.49,25.09z"/>
			<path d="M65.61,12.27c0-0.01-0.01-1.15-0.42-1.86c-0.3-0.52-1.12-0.76-1.41-0.81l0.17-0.99c0.06,0.01,1.5,0.26,2.11,1.3
				c0.55,0.95,0.56,2.31,0.56,2.36L65.61,12.27z"/>
			<path d="M43.46,40.37c-0.01-0.02-0.59-1.66-1.8-2.33c-1.23-0.67-2.81-0.39-2.82-0.39l-0.19-0.98c0.08-0.02,1.94-0.36,3.49,0.5
				c1.56,0.86,2.24,2.79,2.27,2.88L43.46,40.37z"/>
		</g>
		<g>
			<circle class="st2" cx="62.48" cy="87.68" r="11.33"/>
			<path d="M62.48,76.34c1.27,0,2.56,0.22,3.83,0.67c5.89,2.12,8.95,8.6,6.84,14.5c-1.66,4.62-6.02,7.51-10.67,7.51
				c-1.27,0-2.56-0.22-3.83-0.67c-5.89-2.12-8.95-8.6-6.84-14.5C53.48,79.22,57.84,76.34,62.48,76.34 M62.48,75.36L62.48,75.36
				c-5.18,0-9.84,3.28-11.59,8.16c-2.3,6.39,1.04,13.46,7.43,15.76c1.34,0.48,2.75,0.73,4.16,0.73c5.18,0,9.84-3.28,11.59-8.16
				c2.3-6.39-1.04-13.46-7.43-15.76C65.3,75.6,63.9,75.36,62.48,75.36L62.48,75.36z"/>
		</g>
		<g>
			<path class="st3" d="M73.15,91.51c0,0-5.61,0.6-11.5-1.51c-5.89-2.12-9.83-6.15-9.83-6.15c2.12-5.89,8.6-8.95,14.5-6.84
				C72.2,79.13,75.26,85.62,73.15,91.51z"/>
			<path d="M62.48,76.34c1.27,0,2.56,0.22,3.83,0.67c5.89,2.12,8.95,8.6,6.84,14.5c0,0-0.74,0.08-1.96,0.08
				c-2.15,0-5.78-0.24-9.54-1.59c-5.89-2.12-9.83-6.15-9.83-6.15C53.48,79.22,57.84,76.34,62.48,76.34 M62.48,75.36L62.48,75.36
				c-5.18,0-9.84,3.28-11.59,8.16l-0.21,0.58l0.43,0.44c0.17,0.17,4.17,4.22,10.2,6.39c3.8,1.36,7.46,1.65,9.87,1.65
				c1.26,0,2.04-0.08,2.07-0.09l0.61-0.07l0.21-0.58c2.3-6.39-1.04-13.46-7.43-15.76C65.3,75.6,63.9,75.36,62.48,75.36L62.48,75.36z
				"/>
		</g>
	</g>
</g>
<g id="Layer_2">
</g>
</svg>
