<?xml version="1.0" encoding="utf-8"?>
<!-- Generator: Adobe Illustrator 24.0.0, SVG Export Plug-In . SVG Version: 6.00 Build 0)  -->
<svg version="1.1" xmlns="http://www.w3.org/2000/svg" xmlns:xlink="http://www.w3.org/1999/xlink" x="0px" y="0px"
	 viewBox="0 0 100 100" style="enable-background:new 0 0 100 100;" xml:space="preserve">
<style type="text/css">
	.st0{fill:#999999;}
	.st1{fill:#B3B3B3;}
	.st2{fill:#666666;}
	.st3{fill:#C69C6D;}
	.st4{fill:#E6E6E6;}
</style>
<g id="Layer_1">
	<g>
		<g>
			<g>
				
					<ellipse transform="matrix(0.5483 -0.8363 0.8363 0.5483 -7.7427 70.5217)" class="st0" cx="61.41" cy="42.43" rx="21.13" ry="40.09"/>
				<path d="M42.53,14.23c8.79,0,19.9,3.6,30.47,10.53c18.51,12.14,33.52,21.98,21.94,39.65c-4.53,6.91-9.59,9.62-15.18,9.62
					c-8.69,0-18.66-6.54-29.93-13.93C31.31,47.96,21.49,30.21,27.89,20.45C30.64,16.26,35.93,14.23,42.53,14.23 M42.53,13.25
					L42.53,13.25c-7.15,0-12.64,2.37-15.46,6.67c-3.3,5.04-2.74,12.12,1.59,19.94c4.22,7.63,11.55,15.11,20.63,21.06
					c11.53,7.56,21.48,14.09,30.47,14.09c6.33,0,11.56-3.29,16-10.06c12.12-18.49-3.79-28.93-22.22-41.01
					C63.17,17.14,51.87,13.25,42.53,13.25L42.53,13.25z"/>
			</g>
			<path class="st1" d="M69.91,24.51c15.75,10.33,33.22,21.78,19.49,32.45s-21.78,5.38-37.53-4.94S27.4,27.16,32.38,19.57
				S54.17,14.18,69.91,24.51z"/>
			<path class="st2" d="M33.29,45.07C37.38,50.39,43,55.63,49.83,60.1c12.87,8.44,24.04,15.74,33.55,13.49l-17.86-7.45L33.29,45.07z
				"/>
		</g>
		<g>
			<path class="st3" d="M5.89,91.31c-1.2,0-2.41-0.44-3.36-1.33c-1.98-1.85-2.08-4.96-0.23-6.94l68.19-72.8
				c1.85-1.98,4.96-2.08,6.94-0.23c1.98,1.85,2.08,4.96,0.23,6.94L9.48,89.75C8.51,90.79,7.2,91.31,5.89,91.31z"/>
			<path d="M74.09,8.69c1.2,0,2.41,0.44,3.35,1.33c1.98,1.85,2.08,4.96,0.23,6.94L9.48,89.75c-0.97,1.03-2.27,1.55-3.58,1.55
				c-1.2,0-2.41-0.44-3.36-1.33c-1.98-1.85-2.08-4.96-0.23-6.94l68.19-72.8C71.47,9.21,72.78,8.69,74.09,8.69 M74.09,7.71
				L74.09,7.71c-1.62,0-3.19,0.68-4.3,1.86L1.6,82.37c-2.22,2.37-2.1,6.1,0.27,8.32c1.09,1.03,2.52,1.59,4.03,1.59
				c1.62,0,3.19-0.68,4.3-1.86l68.19-72.79c1.08-1.15,1.64-2.65,1.59-4.22c-0.05-1.57-0.71-3.03-1.86-4.11
				C77.02,8.28,75.59,7.71,74.09,7.71L74.09,7.71z"/>
		</g>
		<g>
			<path class="st3" d="M42.75,57.01c-0.07,0-0.14,0-0.21-0.01l-12.9-1.69c-0.9-0.12-1.53-0.94-1.41-1.83
				c0.12-0.9,0.98-1.53,1.83-1.41l12.9,1.69c0.9,0.12,1.53,0.94,1.41,1.83C44.27,56.41,43.56,57.01,42.75,57.01z"/>
			<path d="M29.85,52.05c0.07,0,0.14,0,0.21,0.01l12.9,1.69c0.9,0.12,1.53,0.94,1.41,1.83c-0.11,0.82-0.81,1.43-1.62,1.43
				c-0.07,0-0.14,0-0.21-0.01l-12.9-1.69c-0.9-0.12-1.53-0.94-1.41-1.83C28.34,52.65,29.07,52.05,29.85,52.05 M29.85,51.07
				L29.85,51.07c-1.29,0-2.43,1-2.6,2.28c-0.18,1.43,0.83,2.75,2.26,2.93l12.9,1.69c0.11,0.01,0.22,0.02,0.34,0.02
				c1.31,0,2.42-0.98,2.59-2.28c0.18-1.43-0.83-2.75-2.26-2.93l-12.9-1.69C30.08,51.07,29.97,51.07,29.85,51.07L29.85,51.07z"/>
		</g>
		<g>
			<path class="st3" d="M37.88,62.48c-0.74,0-1.4-0.5-1.59-1.24l-3.15-12.62c-0.22-0.88,0.32-1.76,1.19-1.98
				c0.88-0.21,1.77,0.31,1.98,1.19l3.15,12.62c0.22,0.88-0.32,1.76-1.19,1.98C38.14,62.46,38.01,62.48,37.88,62.48z"/>
			<path d="M34.73,46.58c0.74,0,1.4,0.49,1.59,1.24l3.15,12.62c0.22,0.88-0.32,1.76-1.19,1.98c-0.13,0.03-0.27,0.05-0.4,0.05
				c-0.74,0-1.4-0.5-1.59-1.24l-3.15-12.62c-0.22-0.88,0.32-1.76,1.19-1.98C34.46,46.6,34.59,46.58,34.73,46.58 M34.73,45.6
				c-0.21,0-0.42,0.03-0.63,0.08c-1.4,0.35-2.26,1.78-1.91,3.17l3.15,12.63c0.29,1.17,1.33,1.98,2.54,1.98
				c0.21,0,0.42-0.03,0.62-0.07c1.41-0.35,2.26-1.78,1.92-3.17l-3.15-12.63C36.98,46.42,35.93,45.6,34.73,45.6L34.73,45.6z"/>
		</g>
		<g>
			<path class="st3" d="M73.9,23.03c-0.07,0-0.14,0-0.21-0.01l-12.9-1.69c-0.9-0.12-1.53-0.94-1.41-1.83
				c0.12-0.9,0.98-1.53,1.83-1.41l12.9,1.69c0.9,0.12,1.53,0.94,1.41,1.83C75.41,22.43,74.71,23.03,73.9,23.03z"/>
			<path d="M61,18.07c0.07,0,0.14,0,0.21,0.01l12.9,1.69c0.9,0.12,1.53,0.94,1.41,1.83c-0.11,0.82-0.81,1.43-1.62,1.43
				c-0.07,0-0.14,0-0.21-0.01l-12.9-1.69c-0.9-0.12-1.53-0.94-1.41-1.83C59.48,18.67,60.22,18.07,61,18.07 M61,17.09L61,17.09
				c-1.29,0-2.43,1-2.6,2.28c-0.18,1.43,0.83,2.75,2.26,2.93l12.9,1.69c0.11,0.01,0.22,0.02,0.34,0.02c1.31,0,2.42-0.98,2.59-2.28
				c0.18-1.43-0.83-2.75-2.26-2.93l-12.9-1.69C61.23,17.1,61.11,17.09,61,17.09L61,17.09z"/>
		</g>
		<g>
			<path class="st3" d="M69.03,28.5c-0.74,0-1.4-0.5-1.59-1.24l-3.15-12.62c-0.22-0.88,0.32-1.76,1.19-1.98
				c0.88-0.21,1.77,0.31,1.98,1.19l3.15,12.62c0.22,0.88-0.32,1.76-1.19,1.98C69.29,28.48,69.16,28.5,69.03,28.5z"/>
			<path d="M65.87,12.6c0.74,0,1.4,0.49,1.59,1.24l3.15,12.62c0.22,0.88-0.32,1.76-1.19,1.98c-0.13,0.03-0.27,0.05-0.4,0.05
				c-0.74,0-1.4-0.5-1.59-1.24l-3.15-12.62c-0.22-0.88,0.32-1.76,1.19-1.98C65.61,12.62,65.74,12.6,65.87,12.6 M65.87,11.62
				c-0.21,0-0.42,0.03-0.63,0.08c-1.4,0.35-2.26,1.78-1.91,3.17l3.15,12.63c0.29,1.17,1.33,1.98,2.54,1.98
				c0.21,0,0.42-0.03,0.62-0.07c1.41-0.35,2.26-1.78,1.92-3.17L68.41,13.6C68.12,12.44,67.08,11.62,65.87,11.62L65.87,11.62z"/>
		</g>
		<g>
			<path class="st4" d="M12.92,85.72c-0.01-0.03-0.89-2.75-2.53-4.25c-1.64-1.5-4.31-2.03-4.34-2.04l-0.89-0.17l11.72-12.51
				l0.19-0.02c0,0,0.29-0.03,0.76-0.03c1.19,0,3.43,0.2,4.97,1.5c2.1,1.78,2.77,4.63,2.8,4.75l0.06,0.26L13.18,86.53L12.92,85.72z"
				/>
			<path d="M17.83,67.2c1.09,0,3.22,0.17,4.65,1.38c2,1.69,2.63,4.48,2.63,4.48L13.4,85.56c0,0-0.9-2.85-2.67-4.47
				c-1.77-1.61-4.58-2.16-4.58-2.16l10.97-11.71C17.12,67.23,17.4,67.2,17.83,67.2 M17.83,66.2c-0.47,0-0.77,0.03-0.81,0.03
				l-0.37,0.04l-0.26,0.27L5.42,78.26l-1.24,1.32l1.78,0.34c0.02,0,2.56,0.52,4.09,1.91c1.54,1.41,2.38,4,2.39,4.03l0.52,1.62
				l1.16-1.24l11.71-12.5l0.36-0.39l-0.12-0.52c-0.03-0.13-0.73-3.14-2.96-5.02C21.46,66.41,19.09,66.2,17.83,66.2L17.83,66.2z"/>
		</g>
	</g>
</g>
<g id="Layer_2">
</g>
</svg>
