<?xml version="1.0" encoding="utf-8"?>
<!-- Generator: Adobe Illustrator 24.0.0, SVG Export Plug-In . SVG Version: 6.00 Build 0)  -->
<svg version="1.1" xmlns="http://www.w3.org/2000/svg" xmlns:xlink="http://www.w3.org/1999/xlink" x="0px" y="0px"
	 viewBox="0 0 100 100" style="enable-background:new 0 0 100 100;" xml:space="preserve">
<style type="text/css">
	.st0{fill:#FFFFFF;}
	.st1{fill:#999999;}
	.st2{fill:#C69C6D;}
</style>
<g id="Layer_1">
	<g>
		<g>
			<path class="st0" d="M24.13,7.7c-4.3,5.21-14.66,52.24,15.2,55.2c27.53,2.72,28.98,34.71,42.63,24.95
				c23.04-16.49,6.97-66.52-20.69-77.28C45.11,4.29,29.37,1.36,24.13,7.7z"/>
			<path d="M34.48,5.15c6.61,0,15.75,2.19,26.42,6.34c7.67,2.98,14.76,9.15,20.48,17.83c5.39,8.18,9.01,17.83,10.19,27.17
				c1.71,13.55-2.01,24.68-10.2,30.54c-1.56,1.12-2.96,1.66-4.27,1.66c-3.35,0-6.16-3.66-9.73-8.29
				c-5.54-7.19-13.13-17.04-27.95-18.5c-8.08-0.8-13.75-5.03-16.86-12.59c-6.31-15.31-0.15-37.99,2.33-41
				C26.64,6.22,29.86,5.15,34.48,5.15 M34.48,4.16c-4.65,0-8.3,1.06-10.35,3.54c-4.3,5.21-14.66,52.24,15.2,55.2
				c23.9,2.37,28.15,26.79,37.78,26.79c1.46,0,3.05-0.56,4.84-1.85c23.04-16.49,6.97-66.52-20.69-77.28
				C51.42,6.74,41.73,4.16,34.48,4.16L34.48,4.16z"/>
		</g>
		<path class="st1" d="M18.85,43.12c0,0,14.02-4.78,26.93-3.01s21.51,11.43,21.51,11.43S42.46,65.16,32.6,62.81
			S18.85,43.12,18.85,43.12z"/>
		<g>
			<path class="st2" d="M10.08,99.51c-0.55,0-1.12-0.15-1.63-0.47c-1.43-0.9-1.86-2.79-0.96-4.22l21.94-34.84
				c0.9-1.43,2.78-1.85,4.22-0.96c1.43,0.9,1.86,2.79,0.96,4.22L12.66,98.08C12.08,99,11.09,99.51,10.08,99.51z"/>
			<path d="M10.08,100c-0.67,0-1.32-0.19-1.89-0.54c-1.66-1.05-2.15-3.24-1.11-4.9l21.94-34.84c1.04-1.65,3.24-2.15,4.9-1.11
				c1.66,1.05,2.16,3.24,1.12,4.9L13.08,98.34C12.43,99.38,11.3,100,10.08,100z M32.02,59.06c-0.85,0-1.69,0.42-2.18,1.19
				L7.91,95.09c-0.75,1.19-0.39,2.78,0.8,3.53c0.41,0.26,0.88,0.39,1.36,0.39c0.89,0,1.7-0.45,2.17-1.2l21.94-34.84
				c0.75-1.19,0.39-2.78-0.8-3.53C32.96,59.18,32.49,59.06,32.02,59.06z"/>
		</g>
		<g>
			<path class="st2" d="M27.22,66.44c-1.91,0-3.12-0.05-3.31-0.06c-1.69-0.08-2.99-1.51-2.91-3.2c0.08-1.68,1.51-2.98,3.2-2.91
				c0.17,0.01,17.79,0.76,29.91-4.09c12.11-4.84,25.01-18.47,25.14-18.61c1.15-1.23,3.09-1.29,4.32-0.13
				c1.23,1.15,1.29,3.09,0.13,4.32c-0.56,0.6-13.95,14.75-27.33,20.1C46.23,65.92,33.24,66.44,27.22,66.44z"/>
			<path d="M27.22,66.94c-2.04,0-3.28-0.06-3.33-0.06c-1.95-0.09-3.47-1.76-3.38-3.71c0.09-1.95,1.74-3.46,3.71-3.38
				c0.18,0.01,17.65,0.77,29.7-4.05c11.9-4.76,24.84-18.35,24.96-18.49c0.65-0.69,1.53-1.09,2.48-1.12
				c0.94-0.03,1.85,0.31,2.54,0.96c1.43,1.34,1.5,3.59,0.16,5.02c-0.57,0.6-14.07,14.84-27.5,20.22
				C46.52,66.34,33.87,66.94,27.22,66.94z M24.06,60.77c-1.36,0-2.5,1.07-2.56,2.44c-0.06,1.41,1.03,2.61,2.44,2.68
				c0.05,0,1.27,0.06,3.28,0.06c6.58,0,19.09-0.59,28.97-4.54c13.24-5.3,26.59-19.38,27.15-19.98c0.97-1.03,0.92-2.65-0.11-3.62
				c-0.5-0.47-1.14-0.71-1.83-0.69c-0.68,0.02-1.32,0.31-1.79,0.81c-0.13,0.14-13.03,13.81-25.32,18.73
				c-12.19,4.87-29.95,4.13-30.12,4.12C24.14,60.77,24.1,60.77,24.06,60.77z"/>
		</g>
		<g>
			<path class="st2" d="M78.89,49.18c-1.43,0-2.71-1.01-3-2.46c-0.05-0.25-5.09-25.17-16.48-33.81c-9.32-7.07-32.11-4.2-40.1-2.5
				c-1.66,0.34-3.27-0.7-3.63-2.35c-0.35-1.65,0.7-3.27,2.35-3.63c1.28-0.27,31.63-6.58,45.06,3.61
				c13.24,10.05,18.56,36.38,18.78,37.5c0.33,1.66-0.75,3.26-2.41,3.59C79.29,49.16,79.09,49.18,78.89,49.18z"/>
			<path d="M78.89,49.68c-1.69,0-3.15-1.2-3.48-2.86c-0.05-0.25-5.05-24.98-16.29-33.51c-9.18-6.96-31.77-4.1-39.7-2.41
				c-1.92,0.4-3.81-0.83-4.21-2.73c-0.41-1.91,0.82-3.8,2.73-4.21c1.29-0.28,31.82-6.66,45.47,3.7
				c13.36,10.14,18.75,36.67,18.97,37.8c0.38,1.92-0.88,3.79-2.8,4.17C79.36,49.65,79.13,49.68,78.89,49.68z M39.32,7.88
				c7.81,0,15.74,1.1,20.4,4.64c11.6,8.8,16.62,33.86,16.67,34.11c0.24,1.19,1.29,2.06,2.51,2.06c0.17,0,0.33-0.02,0.49-0.05
				c1.39-0.27,2.3-1.62,2.02-3.01c-0.22-1.11-5.54-27.29-18.6-37.2C49.52-1.65,19.42,4.64,18.15,4.91
				c-1.38,0.29-2.27,1.66-1.97,3.04c0.29,1.37,1.66,2.26,3.04,1.97C23.31,9.05,31.25,7.88,39.32,7.88z"/>
		</g>
		<g>
			<path class="st2" d="M32.01,69.83c-0.78,0-1.55-0.29-2.14-0.88c-0.47-0.47-11.58-11.62-14.03-30.34
				c-2.43-18.54,5.1-35.6,5.43-36.31c0.69-1.54,2.49-2.22,4.03-1.54c1.54,0.69,2.23,2.49,1.54,4.03
				c-0.07,0.16-7.14,16.24-4.95,33.02C24.07,54.38,34.06,64.5,34.16,64.6c1.19,1.19,1.2,3.12,0.01,4.32
				C33.58,69.52,32.8,69.83,32.01,69.83z"/>
			<path d="M32.01,70.32c-0.94,0-1.82-0.36-2.49-1.02c-0.48-0.47-11.7-11.73-14.17-30.62C12.9,19.96,20.49,2.81,20.82,2.09
				c0.8-1.78,2.9-2.58,4.69-1.79c1.78,0.8,2.59,2.9,1.79,4.69c-0.07,0.16-7.08,16.17-4.91,32.76c2.14,16.35,12.02,26.4,12.12,26.5
				c1.39,1.38,1.39,3.63,0.02,5.02C33.86,69.95,32.96,70.32,32.01,70.32z M24.06,0.99c-0.98,0-1.91,0.56-2.34,1.51
				c-0.32,0.71-7.8,17.6-5.39,36.05C18.76,57.1,29.75,68.13,30.22,68.6c0.97,0.96,2.65,0.95,3.61-0.02c0.99-1,0.99-2.62-0.01-3.62
				c-0.1-0.1-10.22-10.34-12.41-27.07C19.2,21.03,26.32,4.76,26.39,4.59c0.57-1.29-0.01-2.81-1.29-3.38
				C24.76,1.06,24.41,0.99,24.06,0.99z"/>
		</g>
	</g>
</g>
<g id="Layer_2">
</g>
</svg>
