<?xml version="1.0" encoding="utf-8"?>
<!-- Generator: Adobe Illustrator 24.0.0, SVG Export Plug-In . SVG Version: 6.00 Build 0)  -->
<svg version="1.1" xmlns="http://www.w3.org/2000/svg" xmlns:xlink="http://www.w3.org/1999/xlink" x="0px" y="0px"
	 viewBox="0 0 100 100" style="enable-background:new 0 0 100 100;" xml:space="preserve">
<style type="text/css">
	.st0{fill:#E8E818;}
	.st1{fill:#FFFFFF;}
	.st2{fill:#999999;}
	.st3{fill:#ED1C24;}
</style>
<g id="Layer_1">
	<g>
		<g>
			<path class="st0" d="M11.64,99.02c-0.49,0-0.99-0.13-1.44-0.39c-1.37-0.8-1.83-2.56-1.04-3.93l20.11-34.47
				c0.8-1.37,2.57-1.83,3.93-1.03c1.37,0.8,1.83,2.56,1.04,3.93L14.13,97.59C13.59,98.51,12.63,99.02,11.64,99.02z"/>
			<path d="M31.76,58.8c0.49,0,0.99,0.13,1.44,0.39c1.37,0.8,1.83,2.56,1.04,3.93L14.13,97.59c-0.54,0.91-1.5,1.43-2.49,1.43
				c-0.49,0-0.99-0.13-1.44-0.39c-1.37-0.8-1.83-2.56-1.04-3.93l20.11-34.47C29.81,59.31,30.77,58.8,31.76,58.8 M31.76,57.82
				L31.76,57.82c-1.37,0-2.65,0.73-3.34,1.91L8.32,94.21c-1.07,1.84-0.44,4.2,1.39,5.27c0.59,0.34,1.26,0.53,1.94,0.53
				c1.36,0,2.64-0.73,3.33-1.91l20.11-34.47c1.07-1.84,0.44-4.2-1.39-5.27C33.11,58,32.44,57.82,31.76,57.82L31.76,57.82z"/>
		</g>
		<g>
			<path class="st1" d="M61.77,5.23C98.44,24.64,95.21,77.12,82.27,84.4s-10.09-9.79-47.72-19.85C-3.47,54.38,25.1-14.18,61.77,5.23
				z"/>
			<path d="M48.73,1.79v0.98c4.18,0,8.41,1.12,12.58,3.33c26.39,13.97,28.8,42.81,28.91,51.31c0.16,12.51-3.31,23.25-8.44,26.14
				c-1.98,1.11-3.55,1.63-4.96,1.63c-2.54,0-4.67-1.76-7.89-4.42C63.21,76.03,54.56,68.88,34.8,63.6
				c-12.48-3.34-18.81-13.82-16.95-28.05c1.07-8.14,4.8-16.34,10.24-22.49C33.95,6.42,41.28,2.77,48.73,2.77L48.73,1.79 M48.73,1.79
				C19.09,1.79,1.2,55.63,34.54,64.55c31.33,8.38,34.6,21.61,42.28,21.61c1.55,0,3.27-0.54,5.44-1.76
				c12.94-7.28,16.18-59.76-20.49-79.17C57.26,2.84,52.88,1.79,48.73,1.79L48.73,1.79z"/>
		</g>
		<path class="st2" d="M19.62,47.24c0,0,6.83-6.51,24.22-6.51s24.22,4.47,24.22,4.47s-9.08,21.25-25.98,18.99
			C25.19,61.92,19.62,47.24,19.62,47.24z"/>
		<g>
			<path class="st3" d="M73.81,21.75c-1.97-8.2-6.88-14.64-13.82-18.12C45.84-3.47,27.57,4.19,19.28,20.7
				c-3.98,7.92-5.11,16.7-3.18,24.72c1.78,7.41,5.97,13.35,11.88,17.01l-4.46,7.64c-0.8,1.37-0.33,3.13,1.04,3.93
				c0.45,0.27,0.95,0.39,1.44,0.39c0.99,0,1.95-0.51,2.49-1.43l4.71-8.08c2.6,0.88,5.32,1.34,8.09,1.34c3.77,0,7.63-0.81,11.41-2.43
				c7.58-3.25,13.95-9.4,17.92-17.32C74.61,38.56,75.73,29.77,73.81,21.75z M65.5,43.9c-3.37,6.71-8.71,11.9-15.05,14.62
				c-6.17,2.64-12.54,2.6-17.95-0.11c-5.4-2.71-9.24-7.8-10.81-14.33c-1.61-6.7-0.64-14.09,2.73-20.8
				C29.6,12.95,39.3,6.71,48.62,6.71c3.03,0,6.02,0.66,8.8,2.05c5.4,2.71,9.24,7.8,10.81,14.33C69.83,29.8,68.86,37.19,65.5,43.9z"
				/>
			<path d="M48.67,0.98c3.89,0,7.74,0.85,11.32,2.65c6.94,3.48,11.85,9.92,13.82,18.12c1.92,8.02,0.8,16.8-3.18,24.73
				C66.65,54.4,60.29,60.55,52.71,63.8c-3.78,1.62-7.64,2.43-11.41,2.43c-2.77,0-5.49-0.46-8.09-1.34l-4.71,8.08
				c-0.54,0.91-1.5,1.43-2.49,1.43c-0.49,0-0.99-0.13-1.44-0.39c-1.37-0.8-1.83-2.56-1.04-3.93l4.46-7.64
				c-5.91-3.65-10.1-9.6-11.88-17.01c-1.92-8.02-0.8-16.8,3.18-24.72C25.47,8.37,37.22,0.98,48.67,0.98 M41.3,60.48
				c3,0,6.09-0.65,9.14-1.96c6.34-2.72,11.68-7.91,15.05-14.62c3.37-6.71,4.34-14.1,2.73-20.81c-1.57-6.53-5.4-11.62-10.81-14.33
				c-2.78-1.39-5.77-2.05-8.8-2.05c-9.32,0-19.02,6.24-24.2,16.57c-3.37,6.71-4.34,14.1-2.73,20.81c1.57,6.53,5.4,11.62,10.81,14.33
				C35.23,59.79,38.22,60.48,41.3,60.48 M48.67,0C36.46,0,24.58,7.95,18.41,20.27c-4.08,8.12-5.24,17.14-3.26,25.39
				c1.74,7.23,5.81,13.27,11.52,17.09l-3.98,6.83c-1.07,1.84-0.44,4.2,1.39,5.27c0.59,0.34,1.26,0.53,1.94,0.53
				c1.36,0,2.64-0.73,3.33-1.91l4.32-7.4c2.51,0.76,5.07,1.15,7.64,1.15c3.94,0,7.91-0.84,11.79-2.51
				c7.8-3.34,14.34-9.66,18.41-17.78c4.08-8.13,5.24-17.14,3.26-25.39c-2.04-8.49-7.13-15.15-14.33-18.77
				C56.79,0.93,52.83,0,48.67,0L48.67,0z M41.3,59.5c-2.96,0-5.78-0.66-8.37-1.96c-5.14-2.58-8.8-7.44-10.29-13.68
				c-1.56-6.48-0.62-13.63,2.65-20.14c4.89-9.74,14.04-16.03,23.33-16.03c2.96,0,5.78,0.66,8.36,1.95
				c5.14,2.58,8.8,7.44,10.29,13.68c1.56,6.48,0.62,13.63-2.65,20.14C61.35,49.97,56.18,55,50.06,57.62
				C47.15,58.86,44.2,59.5,41.3,59.5L41.3,59.5z"/>
		</g>
	</g>
</g>
<g id="Layer_2">
</g>
</svg>
