<?xml version="1.0" encoding="utf-8"?>
<!-- Generator: Adobe Illustrator 24.0.0, SVG Export Plug-In . SVG Version: 6.00 Build 0)  -->
<svg version="1.1" id="Layer_1" xmlns="http://www.w3.org/2000/svg" xmlns:xlink="http://www.w3.org/1999/xlink" x="0px" y="0px"
	 viewBox="0 0 100 100" style="enable-background:new 0 0 100 100;" xml:space="preserve">
<style type="text/css">
	.st0{fill:#FFFFFF;}
</style>
<path class="st0" d="M80.47,88.61c6.38-11.32,4.11-19.93-6.67-24.56c-6.83-2.93-15.83,0.66-19.18,9.47
	c-2.96,7.79,2.26,18.61,12.46,19.79c0.04,0.13,0.07,0.26,0.11,0.39c-1.45,0.34-2.88,0.77-4.34,1c-6.56,1.03-13.18,0.65-19.76,0.51
	c-3.59-0.08-7.18-0.87-10.73-1.58c-5.2-1.04-10.41-2.12-15.52-3.51c-4.48-1.22-8.84-2.9-13.24-4.39C3.11,85.55,2.66,85.26,2.13,85
	c0.9-1.6,1.76-3.14,2.62-4.68c5.02-9.03,8.83-18.44,10.51-28.74c1.16-7.13,2.62-14.3,6.03-20.8c3.09-5.9,7.47-10.54,14.03-12.59
	c1.82-0.57,3.78-0.95,5.67-0.95c3.95,0.01,7.96-0.07,11.82,0.62c4.14,0.74,8.17,2.18,12.15,3.58c2.74,0.96,5.31,2.39,8.28,3.75
	c2.6-6.78,4.13-14,6.75-21.3c4.72,3.12,9.28,6.12,13.99,9.24C89,18.37,84.13,23.5,79.07,28.82c1.41,1.2,2.96,2.52,4.52,3.83
	c6.73,5.66,11.55,12.51,13.15,21.31c0.63,3.44,0.03,6.89-0.84,10.21c-0.98,3.77-2.05,7.56-3.58,11.12
	C89.92,80.84,86.2,85.41,80.47,88.61z"/>
</svg>
