<?xml version="1.0" encoding="utf-8"?>
<!-- Generator: Adobe Illustrator 24.0.0, SVG Export Plug-In . SVG Version: 6.00 Build 0)  -->
<svg version="1.1" xmlns="http://www.w3.org/2000/svg" xmlns:xlink="http://www.w3.org/1999/xlink" x="0px" y="0px"
	 viewBox="0 0 100 100" style="enable-background:new 0 0 100 100;" xml:space="preserve">
<style type="text/css">
	.st0{fill:#999999;}
	.st1{fill:#F2F2F2;}
	.st2{fill:#666666;}
	.st3{fill:#808080;}
	.st4{fill:#ED1C24;}
	.st5{fill:#C69C6D;}
</style>
<g id="Layer_1">
	<g>
		<g>
			<path class="st0" d="M66.64,2.15c-5.4,6.43-4.76,16.08,1.07,22.8l-4.3,5.11l-2.63,3.13L41.99,55.55l-17-14.29
				C11.15,57.71-4.48,76.3,14.97,92.65c19.45,16.36,35.08-2.23,48.92-18.69l-17-14.29l18.79-22.35l2.63-3.13l4.3-5.11
				c7.62,4.59,17.24,3.56,22.64-2.86c1.14-1.36,0.97-3.38-0.39-4.52L71.15,1.76C69.8,0.62,67.78,0.8,66.64,2.15z M87.85,24.18
				c-3.97,2.27-9.54,1.67-13.74-1.86S68.36,13.4,69.92,9.1L87.85,24.18z"/>
			<path d="M69.09,1.01c0.73,0,1.46,0.25,2.06,0.75L94.87,21.7c1.36,1.14,1.53,3.16,0.39,4.52c-3.18,3.78-7.82,5.69-12.65,5.69
				c-3.38,0-6.86-0.94-10-2.83l-4.3,5.11l-2.63,3.13L46.89,59.67l17,14.29C53.84,85.92,42.85,98.99,30.13,98.99
				c-4.79,0-9.83-1.86-15.16-6.34c-19.45-16.36-3.82-34.94,10.01-51.4l17,14.29L60.78,33.2l2.63-3.13l4.3-5.11
				c-5.83-6.72-6.47-16.38-1.07-22.8C67.27,1.4,68.18,1.01,69.09,1.01 M82.6,25.52c1.88,0,3.69-0.45,5.26-1.34L69.92,9.1
				c-1.56,4.3,0,9.69,4.19,13.22C76.66,24.46,79.7,25.52,82.6,25.52 M69.09,0c-1.25,0-2.42,0.55-3.23,1.5
				c-5.49,6.53-5.23,16.26,0.52,23.45l-3.75,4.46L60,32.55L41.86,54.12L25.64,40.48l-0.77-0.65l-0.65,0.77
				c-7.08,8.42-14.4,17.12-17.66,26.04c-3.82,10.41-1.27,19.18,7.78,26.78c5.19,4.36,10.51,6.57,15.81,6.57
				c13.19,0,24.53-13.49,34.53-25.38l0.65-0.77l-0.77-0.65L48.32,59.55l18.14-21.58l2.63-3.13l3.75-4.46
				c3.04,1.66,6.39,2.54,9.77,2.54c5.3,0,10.19-2.21,13.42-6.05C96.76,26,97.1,24.91,97,23.79c-0.1-1.12-0.63-2.14-1.49-2.86
				L71.8,0.99C71.05,0.35,70.08,0,69.09,0L69.09,0z M82.6,24.51c-2.78,0-5.56-1.05-7.84-2.97c-3.35-2.82-4.96-6.94-4.28-10.65
				l15.51,13.04C84.93,24.31,83.79,24.51,82.6,24.51L82.6,24.51z"/>
		</g>
		<path class="st1" d="M15.08,88.55c-4.37-3.67-7.27-7.33-9.07-10.96c0.55,5.14,3.18,10.2,8.96,15.06
			c10.85,9.13,20.52,7.36,29.34,1.17C35.87,98.13,26.34,98.02,15.08,88.55z"/>
		<path class="st2" d="M33.73,48.61l-8.75-7.36C15.15,52.95,4.4,65.8,8.59,78.51L33.73,48.61z"/>
		<path class="st3" d="M63.89,73.97c-3.86,4.59-15.7,0.99-26.44-8.05S21.13,45.84,24.99,41.25L63.89,73.97z"/>
		<path class="st4" d="M66.64,2.15c-5.4,6.43-4.76,16.08,1.07,22.8l-6.93,8.24c-1.14,1.36-0.97,3.38,0.39,4.52
			c1.36,1.14,3.38,0.97,4.52-0.39l6.93-8.24c7.62,4.59,17.24,3.56,22.64-2.86c1.14-1.36,0.97-3.38-0.39-4.52L71.15,1.76
			C69.8,0.62,67.78,0.8,66.64,2.15z M87.85,24.18c-3.97,2.27-9.54,1.67-13.74-1.86S68.36,13.4,69.92,9.1L87.85,24.18z"/>
		<path class="st5" d="M68.31,34.19L41.49,66.1c-1.14,1.36-3.16,1.53-4.52,0.39c-1.36-1.14-1.53-3.16-0.39-4.52l26.83-31.9
			c1.14-1.36,3.16-1.53,4.52-0.39C69.28,30.82,69.45,32.84,68.31,34.19z"/>
		<path class="st2" d="M53.88,51.36L41.49,66.1c-1.14,1.36-3.16,1.53-4.52,0.39c-1.36-1.14-1.53-3.16-0.39-4.52l12.39-14.73
			c1.14-1.36,3.16-1.53,4.52-0.39C54.84,47.99,55.02,50.01,53.88,51.36z"/>
	</g>
</g>
<g id="Layer_2">
</g>
</svg>
