<?xml version="1.0" encoding="utf-8"?>
<!-- Generator: Adobe Illustrator 24.0.0, SVG Export Plug-In . SVG Version: 6.00 Build 0)  -->
<svg version="1.1" xmlns="http://www.w3.org/2000/svg" xmlns:xlink="http://www.w3.org/1999/xlink" x="0px" y="0px"
	 viewBox="0 0 100 100" style="enable-background:new 0 0 100 100;" xml:space="preserve">
<style type="text/css">
	.st0{fill:#ED1C24;}
	.st1{fill:#C69C6D;}
	.st2{fill:#F15A24;}
</style>
<g id="Layer_1">
	<g>
		<g>
			<path class="st0" d="M60.96,46.68c-2.14,0-4.36-0.16-6.65-0.51l1.83-12.21c13.2,1.98,22.2-4.7,24.36-10.08
				c1.53-3.79-0.43-5.74-2.04-6.88c-10.65-7.55-39.14-5.79-59.53,14.15l-8.64-8.83C34.32-1.18,69.26-4.67,85.61,6.92
				c7.22,5.11,9.66,13.38,6.36,21.57C88.09,38.1,76.54,46.68,60.96,46.68z"/>
			<path d="M60.96,47.18c-2.19,0-4.45-0.17-6.72-0.51l-0.5-0.08l1.98-13.22l0.5,0.07c12.94,1.94,21.72-4.54,23.81-9.77
				c1.38-3.42-0.27-5.15-1.86-6.28c-10.51-7.45-38.68-5.66-58.88,14.1l-0.36,0.36l-9.35-9.56l0.36-0.36
				C34.15-1.73,69.4-5.2,85.9,6.5c7.42,5.25,9.93,13.75,6.53,22.18C88.73,37.89,77.55,47.18,60.96,47.18z M54.89,45.74
				c2.05,0.28,4.09,0.43,6.07,0.43c16.12,0,26.96-8.98,30.54-17.87c3.21-7.96,0.84-16-6.18-20.97c-16.09-11.41-50.46-8.02-74.29,15
				l7.93,8.1C39.49,10.64,68.03,8.98,78.76,16.58c1.01,0.71,4.07,2.88,2.22,7.48c-2.19,5.46-11.19,12.24-24.4,10.46L54.89,45.74z"/>
		</g>
		<g>
			<path class="st1" d="M68.74,30.59c-2.04-2.74-5.9-3.32-8.64-1.28l-27.79,20.6L18.26,22.73c-1.57-3.03-5.29-4.21-8.32-2.65
				c-3.03,1.56-4.21,5.29-2.65,8.32l16.28,31.47l-8.63,31.28c-0.9,3.29,1.03,6.69,4.31,7.6c0.55,0.15,1.11,0.22,1.65,0.22
				c2.71,0,5.19-1.79,5.95-4.53l8.71-31.57l31.91-23.66C70.2,37.2,70.77,33.33,68.74,30.59z"/>
			<path d="M12.77,19.39c2.23,0,4.39,1.22,5.48,3.34l14.06,27.18l27.79-20.6c1.1-0.82,2.39-1.22,3.67-1.22
				c1.89,0,3.75,0.87,4.97,2.5c2.03,2.74,1.46,6.61-1.28,8.64L35.55,62.89l-8.71,31.57c-0.76,2.74-3.24,4.53-5.95,4.53
				c-0.54,0-1.1-0.07-1.65-0.22c-3.28-0.91-5.21-4.31-4.31-7.6l8.63-31.28L7.29,28.41c-1.57-3.03-0.38-6.76,2.65-8.32
				C10.84,19.62,11.82,19.39,12.77,19.39 M12.77,18.38l0,1.02L12.77,18.38c-1.14,0-2.28,0.28-3.3,0.81
				c-1.71,0.88-2.97,2.37-3.55,4.21c-0.58,1.83-0.42,3.78,0.47,5.49l16.09,31.12l-8.53,30.9c-1.05,3.82,1.2,7.79,5.02,8.85
				c0.64,0.17,1.28,0.26,1.92,0.26c3.22,0,6.07-2.17,6.93-5.28l8.62-31.23l31.63-23.45c3.18-2.36,3.85-6.87,1.49-10.06
				c-1.36-1.82-3.52-2.91-5.79-2.91c-1.55,0-3.03,0.49-4.28,1.42L32.67,48.38L19.16,22.27C17.92,19.87,15.47,18.38,12.77,18.38
				L12.77,18.38z"/>
		</g>
		<g>
			<path class="st0" d="M7.29,28.41c0,0,0.55-2.69,3.94-4.58c3.39-1.88,7.03-1.1,7.03-1.1l3.69,7.14c0,0-2.56-0.87-6.08,1.11
				s-4.72,4.87-4.72,4.87L7.29,28.41z"/>
		</g>
		<g>
			<path class="st0" d="M60.1,29.31c0,0-0.09,3.1,1.94,5.4c2.03,2.29,5.42,4.53,5.42,4.53l-7.36,5.46c0,0-3.08-2.16-4.87-4.62
				s-1.79-5.82-1.79-5.82L60.1,29.31z"/>
		</g>
		<g>
			
				<ellipse transform="matrix(0.1797 -0.9837 0.9837 0.1797 45.3221 82.4948)" class="st2" cx="72.13" cy="14.07" rx="7.03" ry="14.64"/>
			<path d="M78.8,22.42c-2.47,0-5.28-0.44-8.02-0.94c-3.92-0.72-7.48-2.13-10.02-3.97c-2.65-1.92-3.9-4.11-3.52-6.16
				c0.37-2.05,2.32-3.65,5.48-4.52C65.74,6,69.56,5.94,73.48,6.66c7.85,1.43,14.79,3.29,13.54,10.13l0,0
				c-0.57,3.11-2.43,4.88-5.69,5.44C80.55,22.36,79.69,22.42,78.8,22.42z M68.18,7.18c-1.89,0-3.66,0.21-5.2,0.63
				c-2.76,0.75-4.44,2.08-4.74,3.72c-0.3,1.64,0.81,3.48,3.12,5.16c2.42,1.76,5.83,3.11,9.6,3.8c3.65,0.67,7.41,1.22,10.21,0.74
				c2.83-0.48,4.37-1.95,4.86-4.62l0.5,0.09l-0.5-0.09C87,11.25,82.1,9.27,73.3,7.66C71.55,7.34,69.82,7.18,68.18,7.18z"/>
		</g>
	</g>
</g>
<g id="Layer_2">
</g>
</svg>
