<?xml version="1.0" encoding="utf-8"?>
<!-- Generator: Adobe Illustrator 24.0.0, SVG Export Plug-In . SVG Version: 6.00 Build 0)  -->
<svg version="1.1" xmlns="http://www.w3.org/2000/svg" xmlns:xlink="http://www.w3.org/1999/xlink" x="0px" y="0px"
	 viewBox="0 0 100 100" style="enable-background:new 0 0 100 100;" xml:space="preserve">
<style type="text/css">
	.st0{fill:#999999;}
	.st1{fill:#B3B3B3;}
	.st2{fill:#666666;}
	.st3{fill:#8C6239;}
	.st4{fill:#C69C6D;}
</style>
<g id="Layer_1">
	<g>
		<g>
			<g>
				
					<ellipse transform="matrix(0.5483 -0.8363 0.8363 0.5483 -8.1978 70.6263)" class="st0" cx="61.28" cy="42.9" rx="24.18" ry="38.96"/>
				<path d="M46.73,13.49c8.49,0,18.49,3.08,27.81,9.19c17.99,11.8,32.58,21.36,19.32,41.58c-5.59,8.53-11.42,11.76-17.64,11.76
					c-8.53,0-17.79-6.08-28.2-12.9C30.03,51.33,21.38,32.71,28.7,21.54C32.23,16.16,38.83,13.49,46.73,13.49 M46.74,12.51v0.98
					V12.51L46.74,12.51c-8.56,0-15.26,3.02-18.85,8.5c-7.61,11.6,1.19,30.86,19.6,42.94C58.17,70.95,67.4,77,76.22,77
					c7.04,0,13.07-3.99,18.46-12.2c6.33-9.65,6.98-17.6,2.06-25.03c-4.35-6.56-12.76-12.07-21.66-17.91
					C65.88,15.83,55.81,12.51,46.74,12.51L46.74,12.51z"/>
			</g>
			<path class="st1" d="M71.4,22.65c15.3,10.03,32.28,21.17,17.39,33.91s-22.73,7.6-38.03-2.43S27.67,28.92,33.37,20.22
				S56.1,12.62,71.4,22.65z"/>
			<path class="st2" d="M32.28,48.01c3.76,5.49,9.11,10.76,15.74,15.11c12.51,8.2,23.37,15.3,33.28,12.08l-17.69-6.73L32.28,48.01z"
				/>
		</g>
		<g>
			<path class="st3" d="M5.76,87.46c-1.21,0-2.42-0.46-3.35-1.37c-1.88-1.85-1.89-4.87-0.05-6.75l64.48-65.38
				c1.85-1.87,4.87-1.9,6.75-0.05c1.88,1.85,1.89,4.87,0.05,6.75L9.16,86.04C8.22,86.99,6.99,87.46,5.76,87.46z"/>
			<path d="M70.24,12.54c1.21,0,2.42,0.46,3.35,1.37c1.88,1.85,1.89,4.87,0.05,6.75L9.16,86.04c-0.93,0.94-2.17,1.42-3.4,1.42
				c-1.21,0-2.42-0.46-3.35-1.37c-1.88-1.85-1.89-4.87-0.05-6.75l64.48-65.38C67.77,13.01,69.01,12.54,70.24,12.54 M70.24,11.56
				L70.24,11.56c-1.55,0-3.01,0.61-4.1,1.71L1.66,78.65c-2.23,2.26-2.2,5.91,0.06,8.14c1.09,1.07,2.52,1.66,4.04,1.66
				c1.55,0,3-0.61,4.09-1.71l64.48-65.38c2.23-2.26,2.2-5.91-0.06-8.14C73.19,12.15,71.76,11.56,70.24,11.56L70.24,11.56z"/>
		</g>
		<path class="st4" d="M7.68,80.69c1.89,1.72,2.65,3.96,1.16,5.59s-4.22,1.56-6.11-0.16s-2.22-4.44-0.73-6.07S5.79,78.97,7.68,80.69
			z"/>
		<g>
			<path class="st4" d="M44.6,54.31c-0.28,0-0.56-0.06-0.82-0.17c-1.01-0.45-1.46-1.64-1.01-2.64l14.12-31.51
				c0.32-0.72,1.04-1.18,1.83-1.18c0.28,0,0.56,0.06,0.82,0.17c1.01,0.45,1.46,1.64,1.01,2.64L46.43,53.13
				C46.1,53.85,45.39,54.31,44.6,54.31z"/>
			<path d="M58.72,19.3c0.2,0,0.41,0.04,0.61,0.13c0.76,0.34,1.09,1.23,0.76,1.98L45.97,52.93c-0.25,0.56-0.8,0.89-1.37,0.89
				c-0.21,0-0.41-0.04-0.61-0.13c-0.76-0.34-1.09-1.23-0.76-1.98l14.11-31.51C57.6,19.63,58.14,19.3,58.72,19.3 M58.72,18.3
				L58.72,18.3c-0.98,0-1.88,0.58-2.28,1.48L42.32,51.29c-0.56,1.26,0,2.74,1.26,3.3c0.33,0.15,0.67,0.22,1.02,0.22
				c0.98,0,1.88-0.58,2.28-1.48L61,21.82c0.56-1.26,0-2.74-1.26-3.3C59.41,18.37,59.07,18.3,58.72,18.3L58.72,18.3z"/>
		</g>
		<g>
			<path class="st4" d="M35.95,45.72c-0.78,0-1.5-0.46-1.82-1.17c-0.46-1-0.01-2.19,0.99-2.65l31.41-14.33
				c0.26-0.12,0.54-0.18,0.83-0.18c0.78,0,1.5,0.46,1.82,1.17c0.22,0.48,0.24,1.03,0.05,1.53c-0.19,0.5-0.56,0.9-1.04,1.12
				L36.78,45.54C36.52,45.66,36.24,45.72,35.95,45.72z"/>
			<path d="M67.36,27.89c0.57,0,1.11,0.33,1.37,0.88c0.34,0.75,0.01,1.64-0.74,1.99L36.57,45.09c-0.2,0.09-0.41,0.14-0.62,0.14
				c-0.57,0-1.11-0.33-1.37-0.88c-0.34-0.75-0.01-1.64,0.74-1.99l31.41-14.33C66.94,27.93,67.16,27.89,67.36,27.89 M67.36,26.89
				L67.36,26.89c-0.36,0-0.71,0.08-1.03,0.22L34.91,41.45c-1.25,0.57-1.81,2.06-1.24,3.31c0.41,0.89,1.3,1.46,2.28,1.46
				c0.36,0,0.71-0.08,1.04-0.23L68.4,31.66c0.61-0.28,1.07-0.77,1.3-1.4c0.23-0.63,0.21-1.31-0.07-1.91
				C69.24,27.46,68.34,26.89,67.36,26.89L67.36,26.89z"/>
		</g>
		<g>
			<path class="st4" d="M73.42,22.67c-0.07,0-0.14,0-0.21-0.01l-12.54-1.64c-0.87-0.11-1.48-0.91-1.37-1.78
				c0.11-0.88,0.95-1.49,1.78-1.37l12.54,1.64c0.87,0.11,1.48,0.91,1.37,1.78C74.89,22.09,74.21,22.67,73.42,22.67z"/>
			<path d="M60.88,17.85c0.07,0,0.14,0,0.21,0.01l12.54,1.64c0.87,0.11,1.48,0.91,1.37,1.78c-0.11,0.8-0.79,1.39-1.57,1.39
				c-0.07,0-0.14,0-0.21-0.01l-12.54-1.64c-0.87-0.11-1.48-0.91-1.37-1.78C59.41,18.44,60.12,17.85,60.88,17.85 M60.88,16.87
				L60.88,16.87c-1.26,0-2.38,0.98-2.55,2.24c-0.18,1.41,0.81,2.7,2.22,2.88l12.54,1.64c0.11,0.01,0.22,0.02,0.34,0.02
				c1.28,0,2.38-0.96,2.55-2.24c0.18-1.41-0.81-2.7-2.22-2.88l-12.54-1.64C61.11,16.88,61,16.87,60.88,16.87L60.88,16.87z"/>
		</g>
		<g>
			<path class="st4" d="M68.68,27.99c-0.71,0-1.36-0.48-1.54-1.21l-3.07-12.27c-0.21-0.85,0.31-1.71,1.16-1.93
				c0.86-0.21,1.72,0.3,1.93,1.16l3.07,12.27c0.21,0.85-0.31,1.71-1.16,1.93C68.94,27.97,68.81,27.99,68.68,27.99z"/>
			<path d="M65.62,12.54c0.72,0,1.36,0.48,1.54,1.2l3.07,12.27c0.21,0.85-0.31,1.71-1.16,1.93c-0.13,0.03-0.26,0.05-0.39,0.05
				c-0.71,0-1.36-0.48-1.54-1.21l-3.07-12.27c-0.21-0.85,0.31-1.71,1.16-1.93C65.36,12.55,65.49,12.54,65.62,12.54 M65.62,11.56
				c-0.21,0-0.41,0.02-0.62,0.07c-1.38,0.35-2.22,1.75-1.88,3.12l3.07,12.27c0.29,1.15,1.31,1.95,2.49,1.95
				c0.2,0,0.41-0.02,0.61-0.07c1.38-0.35,2.22-1.75,1.88-3.12l-3.07-12.27C67.83,12.36,66.8,11.56,65.62,11.56L65.62,11.56z"/>
		</g>
		<g>
			<path class="st4" d="M42.18,54.72c-0.07,0-0.14,0-0.21-0.01l-12.54-1.64c-0.87-0.11-1.48-0.91-1.37-1.78
				c0.11-0.88,0.95-1.49,1.78-1.37l12.54,1.64c0.87,0.11,1.48,0.91,1.37,1.78C43.65,54.14,42.97,54.72,42.18,54.72z"/>
			<path d="M29.64,49.9c0.07,0,0.14,0,0.21,0.01l12.54,1.64c0.87,0.11,1.48,0.91,1.37,1.78c-0.11,0.8-0.79,1.39-1.57,1.39
				c-0.07,0-0.14,0-0.21-0.01l-12.54-1.64c-0.87-0.11-1.48-0.91-1.37-1.78C28.17,50.49,28.88,49.9,29.64,49.9 M29.64,48.92
				L29.64,48.92c-1.26,0-2.38,0.98-2.55,2.24c-0.18,1.41,0.81,2.7,2.22,2.88l12.54,1.64c0.11,0.01,0.22,0.02,0.34,0.02
				c1.28,0,2.38-0.96,2.55-2.24c0.18-1.41-0.81-2.7-2.22-2.88l-12.54-1.64C29.87,48.93,29.75,48.92,29.64,48.92L29.64,48.92z"/>
		</g>
		<g>
			<path class="st4" d="M37.44,60.04c-0.71,0-1.36-0.48-1.54-1.21l-3.07-12.27c-0.21-0.85,0.31-1.71,1.16-1.93
				c0.86-0.21,1.72,0.3,1.93,1.16l3.07,12.27c0.21,0.85-0.31,1.71-1.16,1.93C37.7,60.02,37.57,60.04,37.44,60.04z"/>
			<path d="M34.38,44.59c0.72,0,1.36,0.48,1.54,1.2l3.07,12.27c0.21,0.85-0.31,1.71-1.16,1.93c-0.13,0.03-0.26,0.05-0.39,0.05
				c-0.71,0-1.36-0.48-1.54-1.21l-3.07-12.27c-0.21-0.85,0.31-1.71,1.16-1.93C34.12,44.6,34.25,44.59,34.38,44.59 M34.38,43.61
				c-0.21,0-0.41,0.02-0.62,0.07c-1.38,0.35-2.22,1.75-1.88,3.12l3.07,12.27c0.29,1.15,1.31,1.95,2.49,1.95
				c0.2,0,0.41-0.02,0.61-0.07c1.38-0.35,2.22-1.75,1.88-3.12l-3.07-12.27C36.59,44.41,35.56,43.61,34.38,43.61L34.38,43.61z"/>
		</g>
	</g>
</g>
<g id="Layer_2">
</g>
</svg>
