<?xml version="1.0" encoding="utf-8"?>
<!-- Generator: Adobe Illustrator 24.0.0, SVG Export Plug-In . SVG Version: 6.00 Build 0)  -->
<svg version="1.1" xmlns="http://www.w3.org/2000/svg" xmlns:xlink="http://www.w3.org/1999/xlink" x="0px" y="0px"
	 viewBox="0 0 100 100" style="enable-background:new 0 0 100 100;" xml:space="preserve">
<style type="text/css">
	.st0{fill:url(#SVGID_1_);}
	.st1{fill:url(#SVGID_2_);}
	.st2{fill:#999999;}
	.st3{fill:url(#SVGID_3_);}
	.st4{fill:#808080;}
	.st5{fill:#CCCCCC;}
</style>
<g id="Layer_1">
	<g>
		<path d="M73.59,8.11c14.04,0,25.43,12.9,25.43,32.75v38.42c0,6.96-12.9,12.61-28.81,12.61c-11.74,0-21.82-3.08-26.31-7.48
			c-0.1-0.06-0.21-0.11-0.3-0.17L14.1,64.1c-2.21-1.51-2.78-4.53-1.27-6.74c0.94-1.38,2.46-2.11,4.01-2.11
			c0.48,0,0.95,0.07,1.42,0.21l21.93,6.73V40.86c0-2.74,2.06-5.26,5.51-7.33c2.03-6.73,5.45-12.42,9.77-16.31
			c-3.05,3.84-5.28,8.8-6.43,14.63c5.3-2.22,12.55-3.6,20.56-3.6c9.12,0,17.27,1.78,22.66,4.57c-3.98-12.5-12.85-21.22-23.18-21.22
			c-5.01,0-9.67,2.08-13.61,5.62C60.09,11.41,66.5,8.11,73.59,8.11 M73.59,7.13c-7.3,0-13.99,3.35-18.83,9.43
			c-4.39,3.97-7.8,9.61-9.89,16.34c-3.71,2.3-5.66,5.05-5.66,7.97v19.99l-20.66-6.34c-0.55-0.17-1.13-0.25-1.7-0.25
			c-1.93,0-3.74,0.95-4.82,2.54c-0.88,1.29-1.2,2.84-0.91,4.37c0.29,1.53,1.16,2.86,2.44,3.74l29.49,20.14
			c0.08,0.06,0.17,0.1,0.25,0.15c0,0,0.01,0,0.01,0c4.85,4.66,15.38,7.67,26.9,7.67c16.71,0,29.79-5.97,29.79-13.59V40.86
			C100,21.32,88.89,7.13,73.59,7.13L73.59,7.13z M56.2,17.91c3.89-3.48,8.35-5.32,12.9-5.32c8.98,0,17.23,7.14,21.49,18.37
			c-5.6-2.36-13.09-3.68-20.97-3.68c-7.07,0-13.81,1.06-19.21,3C51.57,25.51,53.55,21.26,56.2,17.91L56.2,17.91z"/>
		<linearGradient id="SVGID_1_" gradientUnits="userSpaceOnUse" x1="40.1929" y1="66.3761" x2="99.0196" y2="66.3761">
			<stop  offset="0" style="stop-color:#808080"/>
			<stop  offset="1" style="stop-color:#CCCCCC"/>
		</linearGradient>
		<path class="st0" d="M40.19,40.86v38.42h1.2c0,6.96,12.9,12.61,28.81,12.61c15.91,0,28.81-5.64,28.81-12.61V40.86H40.19z"/>
		<g>
			<linearGradient id="SVGID_2_" gradientUnits="userSpaceOnUse" x1="40.1929" y1="40.8647" x2="99.0195" y2="40.8647">
				<stop  offset="0" style="stop-color:#808080"/>
				<stop  offset="1" style="stop-color:#333333"/>
			</linearGradient>
			<ellipse class="st1" cx="69.61" cy="40.86" rx="29.41" ry="12.61"/>
			<path class="st2" d="M69.61,31.46c16,0,26.22,5.57,26.22,9.41s-10.21,9.41-26.22,9.41s-26.22-5.57-26.22-9.41
				S53.6,31.46,69.61,31.46 M69.61,28.26c-16.24,0-29.41,5.64-29.41,12.61s13.17,12.61,29.41,12.61s29.41-5.64,29.41-12.61
				S85.85,28.26,69.61,28.26L69.61,28.26z"/>
		</g>
		<linearGradient id="SVGID_3_" gradientUnits="userSpaceOnUse" x1="11.9858" y1="70.6308" x2="59.6593" y2="70.6308">
			<stop  offset="0" style="stop-color:#808080"/>
			<stop  offset="1" style="stop-color:#CCCCCC"/>
		</linearGradient>
		<path class="st3" d="M43.59,84.23L14.1,64.1c-2.21-1.51-2.78-4.53-1.27-6.74c1.23-1.8,3.45-2.51,5.43-1.9L52.4,65.93
			c5.42,1.66,8.47,7.41,6.81,12.83c-1.66,5.42-7.41,8.47-12.83,6.81C45.37,85.26,44.42,84.79,43.59,84.23z"/>
		<g>
			
				<ellipse transform="matrix(0.4091 -0.9125 0.9125 0.4091 -47.1722 48.1992)" class="st2" cx="13.63" cy="60.52" rx="14.86" ry="12.16"/>
			<path d="M15.52,46.08c1.43,0,2.85,0.29,4.19,0.89c6.13,2.75,8.37,11.04,5.01,18.53c-2.62,5.85-7.88,9.47-12.98,9.47
				c-1.43,0-2.85-0.29-4.19-0.89c-6.13-2.75-8.37-11.04-5.01-18.53C5.16,49.7,10.42,46.08,15.52,46.08 M15.52,45.1L15.52,45.1
				c-5.6,0-11.18,4.04-13.88,10.05c-3.57,7.97-1.1,16.86,5.51,19.83c1.44,0.65,2.98,0.97,4.59,0.97c5.6,0,11.18-4.04,13.87-10.05
				c3.57-7.97,1.1-16.86-5.51-19.83C18.67,45.43,17.13,45.1,15.52,45.1L15.52,45.1z"/>
		</g>
		<path class="st4" d="M49.05,31.86c1.15-5.82,3.38-10.78,6.43-14.63c-4.32,3.89-7.75,9.58-9.77,16.31
			C46.71,32.94,47.82,32.37,49.05,31.86z"/>
		<path class="st5" d="M94.52,47.55c2.84-1.94,4.5-4.22,4.5-6.68c0-19.85-11.38-32.75-25.43-32.75c-7.09,0-13.5,3.3-18.12,9.12
			c3.94-3.54,8.6-5.62,13.61-5.62C83.13,11.61,94.51,27.7,94.52,47.55z"/>
	</g>
</g>
<g id="Layer_2">
</g>
</svg>
